<?xml version="1.0" encoding="UTF-8" standalone="no"?>
<!-- Created with Inkscape (http://www.inkscape.org/) -->

<svg
   xmlns:dc="http://purl.org/dc/elements/1.1/"
   xmlns:cc="http://creativecommons.org/ns#"
   xmlns:rdf="http://www.w3.org/1999/02/22-rdf-syntax-ns#"
   xmlns:svg="http://www.w3.org/2000/svg"
   xmlns="http://www.w3.org/2000/svg"
   xmlns:sodipodi="http://sodipodi.sourceforge.net/DTD/sodipodi-0.dtd"
   xmlns:inkscape="http://www.inkscape.org/namespaces/inkscape"
   width="744.09448819"
   height="1052.3622047"
   id="svg4012"
   version="1.1"
   inkscape:version="0.48.3.1 r9886"
   sodipodi:docname="ornament_laser_cut.svg">
  <defs
     id="defs4014" />
  <sodipodi:namedview
     id="base"
     pagecolor="#ffffff"
     bordercolor="#666666"
     borderopacity="1.0"
     inkscape:pageopacity="0.0"
     inkscape:pageshadow="2"
     inkscape:zoom="1"
     inkscape:cx="528.33412"
     inkscape:cy="761.65569"
     inkscape:document-units="px"
     inkscape:current-layer="layer1"
     showgrid="false"
     showguides="false"
     inkscape:guide-bbox="true"
     inkscape:snap-global="true"
     inkscape:object-nodes="true"
     inkscape:window-width="1280"
     inkscape:window-height="995"
     inkscape:window-x="1280"
     inkscape:window-y="0"
     inkscape:window-maximized="1">
    <sodipodi:guide
       orientation="1,0"
       position="341,871"
       id="guide4042" />
    <sodipodi:guide
       orientation="1,0"
       position="431,885"
       id="guide4044" />
    <sodipodi:guide
       position="411.21981,717"
       orientation="69,0"
       id="guide4074" />
    <sodipodi:guide
       position="360.78025,716"
       orientation="69,0"
       id="guide4076" />
    <sodipodi:guide
       position="397.5,844"
       orientation="69,0"
       id="guide4078" />
    <sodipodi:guide
       position="374.5,843"
       orientation="69,0"
       id="guide4080" />
    <sodipodi:guide
       position="403.625,717"
       orientation="69,0"
       id="guide4082" />
    <sodipodi:guide
       position="368.375,716"
       orientation="69,0"
       id="guide4084" />
    <sodipodi:guide
       orientation="0,1"
       position="273,781"
       id="guide4086" />
    <sodipodi:guide
       orientation="0,1"
       position="184,301"
       id="guide4088" />
    <sodipodi:guide
       position="488,541"
       orientation="0,-69"
       id="guide4108" />
    <sodipodi:guide
       position="386.00002,715.50002"
       orientation="-65.49998,-2e-05"
       id="guide4122" />
    <sodipodi:guide
       orientation="0,1"
       position="431.00002,715.50012"
       id="guide4126" />
    <sodipodi:guide
       orientation="0,1"
       position="430.99998,686.76206"
       id="guide4128" />
    <sodipodi:guide
       orientation="0,1"
       position="431,621.26208"
       id="guide4130" />
    <sodipodi:guide
       orientation="0,1"
       position="386,592.96153"
       id="guide4132" />
    <sodipodi:guide
       orientation="0,1"
       position="431,566.98077"
       id="guide4134" />
    <sodipodi:guide
       orientation="1,0"
       position="521,621.26208"
       id="guide5010" />
  </sodipodi:namedview>
  <metadata
     id="metadata4017">
    <rdf:RDF>
      <cc:Work
         rdf:about="">
        <dc:format>image/svg+xml</dc:format>
        <dc:type
           rdf:resource="http://purl.org/dc/dcmitype/StillImage" />
        <dc:title></dc:title>
      </cc:Work>
    </rdf:RDF>
  </metadata>
  <g
     inkscape:label="Layer 1"
     inkscape:groupmode="layer"
     id="layer1">
    <g
       id="g4054"
       transform="translate(-1.5,0)" />
    <g
       transform="matrix(1.5326087,0,0,1,-207.88587,127)"
       id="g4062" />
    <g
       id="g4068"
       transform="matrix(2.1930243,0,0,1,-463.79689,127)" />
    <path
       id="path4977"
       style="fill:#cc0000;stroke:#000000;stroke-width:1px;stroke-linecap:round;stroke-linejoin:round;stroke-opacity:1"
       d="m 431,485.38141 -33.5,-19.34126 0,-8.95929 33.5,-25.98076 0,-65.49998 -19.78019,15.34043 L 397.5,362.84282 431,336.86206 l 0,-65.49988 -33.5,25.98076 0,-25.98076 -23,0 0,25.98076 -33.5,-25.98076 0,65.49988 33.5,25.98076 -13.71981,18.09773 L 341,365.60012 l 0,65.49998 33.5,25.98076 0,8.95929 -33.5,19.34126 0,51.96154 33.5,19.34126 0,8.95929 -33.5,25.98076 0,65.49998 19.78019,-15.34043 13.71981,18.09773 -33.5,25.98076 0,65.49988 33.5,-25.98076 0,25.98076 23,0 0,-25.98076 33.5,25.98076 0,-65.49988 -33.5,-25.98076 13.71981,-18.09773 19.78019,15.34043 0,-65.49998 -33.5,-25.98076 0,-8.95929 33.5,-19.34126 z"
       inkscape:connector-curvature="0"
       sodipodi:nodetypes="ccccccccccccccccccccccccccccccccccccccccccccc" />
    <path
       sodipodi:nodetypes="ccccccccccccccccccccccccccccccccccccccccccccc"
       inkscape:connector-curvature="0"
       d="m 521,485.38141 -33.5,-19.34126 0,-8.95929 33.5,-25.98076 0,-65.49998 -19.78019,15.34043 L 487.5,362.84282 521,336.86206 l 0,-65.49988 -33.5,25.98076 0,-25.98076 -23,0 0,25.98076 -33.5,-25.98076 0,65.49988 33.5,25.98076 -13.71981,18.09773 L 431,365.60012 l 0,65.49998 33.5,25.98076 0,8.95929 -33.5,19.34126 0,51.96154 33.5,19.34126 0,8.95929 -33.5,25.98076 0,65.49998 19.78019,-15.34043 13.71981,18.09773 -33.5,25.98076 0,65.49988 33.5,-25.98076 0,25.98076 23,0 0,-25.98076 33.5,25.98076 0,-65.49988 -33.5,-25.98076 13.71981,-18.09773 19.78019,15.34043 0,-65.49998 -33.5,-25.98076 0,-8.95929 33.5,-19.34126 z"
       style="fill:#cc0000;stroke:#000000;stroke-width:1px;stroke-linecap:round;stroke-linejoin:round;stroke-opacity:1"
       id="path4988" />
    <path
       id="path4977-3"
       style="fill:#cc0000;stroke:#000000;stroke-width:1px;stroke-linecap:round;stroke-linejoin:round;stroke-opacity:1"
       d="m -52.73593,279.03913 -33.5,-19.34126 0,-8.95929 33.5,-25.98076 0,-65.49998 -19.78019,15.34043 -13.71981,-18.09773 33.5,-25.98076 0,-65.49988 -33.5,25.98076 0,-25.98076 -23,0 0,25.98076 -33.5,-25.98076 0,65.49988 33.5,25.98076 -13.71981,18.09773 -19.78019,-15.34043 0,65.49998 33.5,25.98076 0,8.95929 -33.5,19.34126 0,51.96154 33.5,19.34126 0,8.95929 -33.5,25.98076 0,65.49998 19.78019,-15.34043 13.71981,18.09773 -33.5,25.98076 0,65.49988 33.5,-25.98076 0,25.98076 23,0 0,-25.98076 33.5,25.98076 0,-65.49988 -33.5,-25.98076 13.71981,-18.09773 19.78019,15.34043 0,-65.49998 -33.5,-25.98076 0,-8.95929 33.5,-19.34126 z"
       inkscape:connector-curvature="0"
       sodipodi:nodetypes="ccccccccccccccccccccccccccccccccccccccccccccc" />
    <path
       id="path5012"
       style="fill:#cc0000;stroke:#000000;stroke-width:1px;stroke-linecap:round;stroke-linejoin:round;stroke-opacity:1"
       d="m 611,485.38141 -33.5,-19.34126 0,-8.95929 33.5,-25.98076 0,-65.49998 -19.78019,15.34043 L 577.5,362.84282 611,336.86206 l 0,-65.49988 -33.5,25.98076 0,-25.98076 -23,0 0,25.98076 -33.5,-25.98076 0,65.49988 33.5,25.98076 -13.71981,18.09773 L 521,365.60012 l 0,65.49998 33.5,25.98076 0,8.95929 -33.5,19.34126 0,51.96154 33.5,19.34126 0,8.95929 -33.5,25.98076 0,65.49998 19.78019,-15.34043 13.71981,18.09773 -33.5,25.98076 0,65.49988 33.5,-25.98076 0,25.98076 23,0 0,-25.98076 33.5,25.98076 0,-65.49988 -33.5,-25.98076 13.71981,-18.09773 19.78019,15.34043 0,-65.49998 -33.5,-25.98076 0,-8.95929 33.5,-19.34126 z"
       inkscape:connector-curvature="0"
       sodipodi:nodetypes="ccccccccccccccccccccccccccccccccccccccccccccc" />
    <path
       sodipodi:nodetypes="ccccccccccccccccccccccccccccccccccccccccccccc"
       inkscape:connector-curvature="0"
       d="m 431,5.3814152 -33.5,-19.3412592 0,-8.95929 33.5,-25.98076 0,-65.499986 -19.78019,15.340433 -13.71981,-18.097733 33.5,-25.98076 0,-65.49988 -33.5,25.98076 0,-25.98076 -23,0 0,25.98076 -33.5,-25.98076 0,65.49988 33.5,25.98076 -13.71981,18.097733 L 341,-114.39988 l 0,65.499986 33.5,25.98076 0,8.95929 -33.5,19.3412592 0,51.9615408 33.5,19.34126 0,8.95929 -33.5,25.980754 0,65.49998 19.78019,-15.34043 13.71981,18.09773 -33.5,25.98076 0,65.49988 33.5,-25.98076 0,25.98076 23,0 0,-25.98076 33.5,25.98076 0,-65.49988 -33.5,-25.98076 13.71981,-18.09773 19.78019,15.34043 0,-65.49998 -33.5,-25.980754 0,-8.95929 33.5,-19.34126 z"
       style="fill:#cc0000;stroke:#000000;stroke-width:1px;stroke-linecap:round;stroke-linejoin:round;stroke-opacity:1"
       id="path5014" />
    <path
       id="path5016"
       style="fill:#cc0000;stroke:#000000;stroke-width:1px;stroke-linecap:round;stroke-linejoin:round;stroke-opacity:1"
       d="m 521,5.3814152 -33.5,-19.3412592 0,-8.95929 33.5,-25.98076 0,-65.499986 -19.78019,15.340433 -13.71981,-18.097733 33.5,-25.98076 0,-65.49988 -33.5,25.98076 0,-25.98076 -23,0 0,25.98076 -33.5,-25.98076 0,65.49988 33.5,25.98076 -13.71981,18.097733 L 431,-114.39988 l 0,65.499986 33.5,25.98076 0,8.95929 -33.5,19.3412592 0,51.9615408 33.5,19.34126 0,8.95929 -33.5,25.980754 0,65.49998 19.78019,-15.34043 13.71981,18.09773 -33.5,25.98076 0,65.49988 33.5,-25.98076 0,25.98076 23,0 0,-25.98076 33.5,25.98076 0,-65.49988 -33.5,-25.98076 13.71981,-18.09773 19.78019,15.34043 0,-65.49998 -33.5,-25.980754 0,-8.95929 33.5,-19.34126 z"
       inkscape:connector-curvature="0"
       sodipodi:nodetypes="ccccccccccccccccccccccccccccccccccccccccccccc" />
    <path
       sodipodi:nodetypes="ccccccccccccccccccccccccccccccccccccccccccccc"
       inkscape:connector-curvature="0"
       d="m 611,5.3814152 -33.5,-19.3412592 0,-8.95929 33.5,-25.98076 0,-65.499986 -19.78019,15.340433 -13.71981,-18.097733 33.5,-25.98076 0,-65.49988 -33.5,25.98076 0,-25.98076 -23,0 0,25.98076 -33.5,-25.98076 0,65.49988 33.5,25.98076 -13.71981,18.097733 L 521,-114.39988 l 0,65.499986 33.5,25.98076 0,8.95929 -33.5,19.3412592 0,51.9615408 33.5,19.34126 0,8.95929 -33.5,25.980754 0,65.49998 19.78019,-15.34043 13.71981,18.09773 -33.5,25.98076 0,65.49988 33.5,-25.98076 0,25.98076 23,0 0,-25.98076 33.5,25.98076 0,-65.49988 -33.5,-25.98076 13.71981,-18.09773 19.78019,15.34043 0,-65.49998 -33.5,-25.980754 0,-8.95929 33.5,-19.34126 z"
       style="fill:#cc0000;stroke:#000000;stroke-width:1px;stroke-linecap:round;stroke-linejoin:round;stroke-opacity:1"
       id="path5018" />
  </g>
</svg>
