<?xml version="1.0" encoding="UTF-8" standalone="no"?>
<!-- Created with Inkscape (http://www.inkscape.org/) -->

<svg
   xmlns:dc="http://purl.org/dc/elements/1.1/"
   xmlns:cc="http://creativecommons.org/ns#"
   xmlns:rdf="http://www.w3.org/1999/02/22-rdf-syntax-ns#"
   xmlns:svg="http://www.w3.org/2000/svg"
   xmlns="http://www.w3.org/2000/svg"
   xmlns:sodipodi="http://sodipodi.sourceforge.net/DTD/sodipodi-0.dtd"
   xmlns:inkscape="http://www.inkscape.org/namespaces/inkscape"
   width="163.71875"
   height="163.71875"
   id="svg3340"
   version="1.1"
   inkscape:version="0.48.3.1 r9886"
   sodipodi:docname="icon_cluster.svg">
  <defs
     id="defs3342" />
  <sodipodi:namedview
     id="base"
     pagecolor="#ffffff"
     bordercolor="#666666"
     borderopacity="1.0"
     inkscape:pageopacity="0.0"
     inkscape:pageshadow="2"
     inkscape:zoom="1.4415358"
     inkscape:cx="81.85714"
     inkscape:cy="81.85714"
     inkscape:document-units="px"
     inkscape:current-layer="layer1"
     showgrid="false"
     fit-margin-top="0"
     fit-margin-left="0"
     fit-margin-right="0"
     fit-margin-bottom="0"
     inkscape:window-width="513"
     inkscape:window-height="406"
     inkscape:window-x="805"
     inkscape:window-y="91"
     inkscape:window-maximized="0" />
  <metadata
     id="metadata3345">
    <rdf:RDF>
      <cc:Work
         rdf:about="">
        <dc:format>image/svg+xml</dc:format>
        <dc:type
           rdf:resource="http://purl.org/dc/dcmitype/StillImage" />
        <dc:title></dc:title>
      </cc:Work>
    </rdf:RDF>
  </metadata>
  <g
     inkscape:label="Layer 1"
     inkscape:groupmode="layer"
     id="layer1"
     transform="translate(-478.38429,-511.54371)">
    <g
       transform="translate(176.66554,21.043712)"
       id="g4536"
       inkscape:export-filename="/Users/matthew/ece/Private/15781_proj/poster/icon_outlier.png"
       inkscape:export-xdpi="600"
       inkscape:export-ydpi="600">
      <path
         d="m 201.42857,92.362183 c 0,42.999307 -34.85783,77.857137 -77.85714,77.857137 -42.999314,0 -77.857143,-34.85783 -77.857143,-77.857137 0,-42.999311 34.857829,-77.85714 77.857143,-77.85714 42.99931,0 77.85714,34.857829 77.85714,77.85714 z"
         sodipodi:ry="77.85714"
         sodipodi:rx="77.85714"
         sodipodi:cy="92.362183"
         sodipodi:cx="123.57143"
         id="path4303"
         style="fill:#ffffff;fill-opacity:1;stroke:#993300;stroke-width:8;stroke-linecap:square;stroke-linejoin:round;stroke-miterlimit:4;stroke-opacity:1;stroke-dasharray:none;stroke-dashoffset:0"
         sodipodi:type="arc"
         transform="translate(260,480)" />
      <path
         transform="translate(260,480)"
         sodipodi:type="arc"
         style="fill:#993300;fill-opacity:0.23529412;stroke:#993300;stroke-width:8;stroke-linecap:square;stroke-linejoin:round;stroke-miterlimit:4;stroke-opacity:1;stroke-dasharray:none;stroke-dashoffset:0"
         id="path4305"
         sodipodi:cx="123.57143"
         sodipodi:cy="92.362183"
         sodipodi:rx="77.85714"
         sodipodi:ry="77.85714"
         d="m 201.42857,92.362183 c 0,42.999307 -34.85783,77.857137 -77.85714,77.857137 -42.999314,0 -77.857143,-34.85783 -77.857143,-77.857137 0,-42.999311 34.857829,-77.85714 77.857143,-77.85714 42.99931,0 77.85714,34.857829 77.85714,77.85714 z" />
      <path
         transform="translate(107.5,78)"
         d="m 308,453.36218 -10.23562,-1.98351 -7.4367,7.30738 -1.27655,-10.3476 -9.2478,-4.81461 9.44667,-4.41166 1.72125,-10.28297 7.11491,7.62104 10.31159,-1.54061 -5.04941,9.12172 z"
         inkscape:randomized="0"
         inkscape:rounded="0"
         inkscape:flatsided="false"
         sodipodi:arg2="1.278189"
         sodipodi:arg1="0.64987045"
         sodipodi:r2="7.8501592"
         sodipodi:r1="15.700318"
         sodipodi:cy="443.86218"
         sodipodi:cx="295.5"
         sodipodi:sides="5"
         id="path4516"
         style="fill:#993300;fill-opacity:1;stroke:#000000;stroke-width:2;stroke-linecap:round;stroke-linejoin:round;stroke-miterlimit:4;stroke-opacity:1;stroke-dasharray:none;stroke-dashoffset:0"
         sodipodi:type="star" />
      <path
         sodipodi:type="star"
         style="fill:#993300;fill-opacity:1;stroke:#000000;stroke-width:2;stroke-linecap:round;stroke-linejoin:round;stroke-miterlimit:4;stroke-opacity:1;stroke-dasharray:none;stroke-dashoffset:0"
         id="path4518"
         sodipodi:sides="5"
         sodipodi:cx="295.5"
         sodipodi:cy="443.86218"
         sodipodi:r1="15.700318"
         sodipodi:r2="7.8501592"
         sodipodi:arg1="0.64987045"
         sodipodi:arg2="1.278189"
         inkscape:flatsided="false"
         inkscape:rounded="0"
         inkscape:randomized="0"
         d="m 308,453.36218 -10.23562,-1.98351 -7.4367,7.30738 -1.27655,-10.3476 -9.2478,-4.81461 9.44667,-4.41166 1.72125,-10.28297 7.11491,7.62104 10.31159,-1.54061 -5.04941,9.12172 z"
         transform="translate(140,148)" />
      <path
         transform="matrix(2.4999999,0,0,2.4999999,-491.8877,445.06619)"
         d="m 335,57.362183 c 0,1.577956 -1.27919,2.857143 -2.85715,2.857143 -1.57795,0 -2.85714,-1.279187 -2.85714,-2.857143 0,-1.577957 1.27919,-2.857143 2.85714,-2.857143 1.57796,0 2.85715,1.279186 2.85715,2.857143 z"
         sodipodi:ry="2.8571429"
         sodipodi:rx="2.8571429"
         sodipodi:cy="57.362183"
         sodipodi:cx="332.14285"
         id="path4520"
         style="fill:#993300;fill-opacity:1;stroke:#000000;stroke-width:0.80000001;stroke-linecap:square;stroke-linejoin:round;stroke-miterlimit:4;stroke-opacity:1;stroke-dasharray:none;stroke-dashoffset:0"
         sodipodi:type="arc" />
      <path
         transform="matrix(2.4999999,0,0,2.4999999,-500.24581,417.79392)"
         d="m 335,57.362183 c 0,1.577956 -1.27919,2.857143 -2.85715,2.857143 -1.57795,0 -2.85714,-1.279187 -2.85714,-2.857143 0,-1.577957 1.27919,-2.857143 2.85714,-2.857143 1.57796,0 2.85715,1.279186 2.85715,2.857143 z"
         sodipodi:ry="2.8571429"
         sodipodi:rx="2.8571429"
         sodipodi:cy="57.362183"
         sodipodi:cx="332.14285"
         id="path4522"
         style="fill:#993300;fill-opacity:1;stroke:#000000;stroke-width:0.80000001;stroke-linecap:square;stroke-linejoin:round;stroke-miterlimit:4;stroke-opacity:1;stroke-dasharray:none;stroke-dashoffset:0"
         sodipodi:type="arc" />
      <path
         transform="matrix(2.4999999,0,0,2.4999999,-483.1099,475.41707)"
         d="m 335,57.362183 c 0,1.577956 -1.27919,2.857143 -2.85715,2.857143 -1.57795,0 -2.85714,-1.279187 -2.85714,-2.857143 0,-1.577957 1.27919,-2.857143 2.85714,-2.857143 1.57796,0 2.85715,1.279186 2.85715,2.857143 z"
         sodipodi:ry="2.8571429"
         sodipodi:rx="2.8571429"
         sodipodi:cy="57.362183"
         sodipodi:cx="332.14285"
         id="path4524"
         style="fill:#993300;fill-opacity:1;stroke:#000000;stroke-width:0.80000001;stroke-linecap:square;stroke-linejoin:round;stroke-miterlimit:4;stroke-opacity:1;stroke-dasharray:none;stroke-dashoffset:0"
         sodipodi:type="arc" />
      <path
         transform="matrix(2.4999999,0,0,2.4999999,-497.03278,463.0793)"
         d="m 335,57.362183 c 0,1.577956 -1.27919,2.857143 -2.85715,2.857143 -1.57795,0 -2.85714,-1.279187 -2.85714,-2.857143 0,-1.577957 1.27919,-2.857143 2.85714,-2.857143 1.57796,0 2.85715,1.279186 2.85715,2.857143 z"
         sodipodi:ry="2.8571429"
         sodipodi:rx="2.8571429"
         sodipodi:cy="57.362183"
         sodipodi:cx="332.14285"
         id="path4526"
         style="fill:#993300;fill-opacity:1;stroke:#000000;stroke-width:0.80000001;stroke-linecap:square;stroke-linejoin:round;stroke-miterlimit:4;stroke-opacity:1;stroke-dasharray:none;stroke-dashoffset:0"
         sodipodi:type="arc" />
      <path
         transform="matrix(2.4999999,0,0,2.4999999,-472.49887,436.83253)"
         d="m 335,57.362183 c 0,1.577956 -1.27919,2.857143 -2.85715,2.857143 -1.57795,0 -2.85714,-1.279187 -2.85714,-2.857143 0,-1.577957 1.27919,-2.857143 2.85714,-2.857143 1.57796,0 2.85715,1.279186 2.85715,2.857143 z"
         sodipodi:ry="2.8571429"
         sodipodi:rx="2.8571429"
         sodipodi:cy="57.362183"
         sodipodi:cx="332.14285"
         id="path4528"
         style="fill:#993300;fill-opacity:1;stroke:#000000;stroke-width:0.80000001;stroke-linecap:square;stroke-linejoin:round;stroke-miterlimit:4;stroke-opacity:1;stroke-dasharray:none;stroke-dashoffset:0"
         sodipodi:type="arc" />
      <path
         transform="matrix(2.4999999,0,0,2.4999999,-466.72032,456.43476)"
         d="m 335,57.362183 c 0,1.577956 -1.27919,2.857143 -2.85715,2.857143 -1.57795,0 -2.85714,-1.279187 -2.85714,-2.857143 0,-1.577957 1.27919,-2.857143 2.85714,-2.857143 1.57796,0 2.85715,1.279186 2.85715,2.857143 z"
         sodipodi:ry="2.8571429"
         sodipodi:rx="2.8571429"
         sodipodi:cy="57.362183"
         sodipodi:cx="332.14285"
         id="path4530"
         style="fill:#993300;fill-opacity:1;stroke:#000000;stroke-width:0.80000001;stroke-linecap:square;stroke-linejoin:round;stroke-miterlimit:4;stroke-opacity:1;stroke-dasharray:none;stroke-dashoffset:0"
         sodipodi:type="arc" />
      <path
         transform="matrix(2.4999999,0,0,2.4999999,-508.89119,436.6365)"
         d="m 335,57.362183 c 0,1.577956 -1.27919,2.857143 -2.85715,2.857143 -1.57795,0 -2.85714,-1.279187 -2.85714,-2.857143 0,-1.577957 1.27919,-2.857143 2.85714,-2.857143 1.57796,0 2.85715,1.279186 2.85715,2.857143 z"
         sodipodi:ry="2.8571429"
         sodipodi:rx="2.8571429"
         sodipodi:cy="57.362183"
         sodipodi:cx="332.14285"
         id="path4532"
         style="fill:#993300;fill-opacity:1;stroke:#000000;stroke-width:0.80000001;stroke-linecap:square;stroke-linejoin:round;stroke-miterlimit:4;stroke-opacity:1;stroke-dasharray:none;stroke-dashoffset:0"
         sodipodi:type="arc" />
      <path
         transform="matrix(2.4999999,0,0,2.4999999,-482.3571,418.95673)"
         d="m 335,57.362183 c 0,1.577956 -1.27919,2.857143 -2.85715,2.857143 -1.57795,0 -2.85714,-1.279187 -2.85714,-2.857143 0,-1.577957 1.27919,-2.857143 2.85714,-2.857143 1.57796,0 2.85715,1.279186 2.85715,2.857143 z"
         sodipodi:ry="2.8571429"
         sodipodi:rx="2.8571429"
         sodipodi:cy="57.362183"
         sodipodi:cx="332.14285"
         id="path4534"
         style="fill:#993300;fill-opacity:1;stroke:#000000;stroke-width:0.80000001;stroke-linecap:square;stroke-linejoin:round;stroke-miterlimit:4;stroke-opacity:1;stroke-dasharray:none;stroke-dashoffset:0"
         sodipodi:type="arc" />
    </g>
  </g>
</svg>
