<?xml version="1.0" encoding="UTF-8" standalone="no"?>
<!-- Created with Inkscape (http://www.inkscape.org/) -->

<svg
   xmlns:dc="http://purl.org/dc/elements/1.1/"
   xmlns:cc="http://creativecommons.org/ns#"
   xmlns:rdf="http://www.w3.org/1999/02/22-rdf-syntax-ns#"
   xmlns:svg="http://www.w3.org/2000/svg"
   xmlns="http://www.w3.org/2000/svg"
   xmlns:sodipodi="http://sodipodi.sourceforge.net/DTD/sodipodi-0.dtd"
   xmlns:inkscape="http://www.inkscape.org/namespaces/inkscape"
   width="163.71875"
   height="163.71875"
   id="svg3340"
   version="1.1"
   inkscape:version="0.48.3.1 r9886"
   sodipodi:docname="icon_logistic.svg">
  <defs
     id="defs3342" />
  <sodipodi:namedview
     id="base"
     pagecolor="#ffffff"
     bordercolor="#666666"
     borderopacity="1.0"
     inkscape:pageopacity="0.0"
     inkscape:pageshadow="2"
     inkscape:zoom="1.4415358"
     inkscape:cx="81.85714"
     inkscape:cy="81.85714"
     inkscape:document-units="px"
     inkscape:current-layer="layer1"
     showgrid="false"
     fit-margin-top="0"
     fit-margin-left="0"
     fit-margin-right="0"
     fit-margin-bottom="0"
     inkscape:window-width="513"
     inkscape:window-height="406"
     inkscape:window-x="805"
     inkscape:window-y="91"
     inkscape:window-maximized="0" />
  <metadata
     id="metadata3345">
    <rdf:RDF>
      <cc:Work
         rdf:about="">
        <dc:format>image/svg+xml</dc:format>
        <dc:type
           rdf:resource="http://purl.org/dc/dcmitype/StillImage" />
        <dc:title></dc:title>
      </cc:Work>
    </rdf:RDF>
  </metadata>
  <g
     inkscape:label="Layer 1"
     inkscape:groupmode="layer"
     id="layer1"
     transform="translate(-390.95967,-449.11259)">
    <g
       id="g3709"
       transform="translate(-10.759082,438.61259)"
       inkscape:export-filename="/Users/matthew/ece/Private/15781_proj/poster/icon_linear.png"
       inkscape:export-xdpi="600"
       inkscape:export-ydpi="600">
      <path
         d="m 201.42857,92.362183 c 0,42.999307 -34.85783,77.857137 -77.85714,77.857137 -42.999314,0 -77.857143,-34.85783 -77.857143,-77.857137 0,-42.999311 34.857829,-77.85714 77.857143,-77.85714 42.99931,0 77.85714,34.857829 77.85714,77.85714 z"
         sodipodi:ry="77.85714"
         sodipodi:rx="77.85714"
         sodipodi:cy="92.362183"
         sodipodi:cx="123.57143"
         id="path4295"
         style="fill:#ffffff;fill-opacity:1;stroke:#336699;stroke-width:8;stroke-linecap:square;stroke-linejoin:round;stroke-miterlimit:4;stroke-opacity:1;stroke-dasharray:none;stroke-dashoffset:0"
         sodipodi:type="arc"
         transform="translate(360,0)" />
      <path
         transform="translate(360,0)"
         sodipodi:type="arc"
         style="fill:#336699;fill-opacity:0.23529412;stroke:#336699;stroke-width:8;stroke-linecap:square;stroke-linejoin:round;stroke-miterlimit:4;stroke-opacity:1;stroke-dasharray:none;stroke-dashoffset:0"
         id="path3173"
         sodipodi:cx="123.57143"
         sodipodi:cy="92.362183"
         sodipodi:rx="77.85714"
         sodipodi:ry="77.85714"
         d="m 201.42857,92.362183 c 0,42.999307 -34.85783,77.857137 -77.85714,77.857137 -42.999314,0 -77.857143,-34.85783 -77.857143,-77.857137 0,-42.999311 34.857829,-77.85714 77.857143,-77.85714 42.99931,0 77.85714,34.857829 77.85714,77.85714 z" />
      <path
         transform="matrix(2.4999999,0,0,2.4999999,-367.49998,-105.32898)"
         d="m 335,57.362183 c 0,1.577956 -1.27919,2.857143 -2.85715,2.857143 -1.57795,0 -2.85714,-1.279187 -2.85714,-2.857143 0,-1.577957 1.27919,-2.857143 2.85714,-2.857143 1.57796,0 2.85715,1.279186 2.85715,2.857143 z"
         sodipodi:ry="2.8571429"
         sodipodi:rx="2.8571429"
         sodipodi:cy="57.362183"
         sodipodi:cx="332.14285"
         id="path3175"
         style="fill:#336699;fill-opacity:1;stroke:#000000;stroke-width:0.80000001;stroke-linecap:square;stroke-linejoin:round;stroke-miterlimit:4;stroke-opacity:1;stroke-dasharray:none;stroke-dashoffset:0"
         sodipodi:type="arc" />
      <path
         sodipodi:type="arc"
         style="fill:#336699;fill-opacity:1;stroke:#000000;stroke-width:0.80000001;stroke-linecap:square;stroke-linejoin:round;stroke-miterlimit:4;stroke-opacity:1;stroke-dasharray:none;stroke-dashoffset:0"
         id="path3177"
         sodipodi:cx="332.14285"
         sodipodi:cy="57.362183"
         sodipodi:rx="2.8571429"
         sodipodi:ry="2.8571429"
         d="m 335,57.362183 c 0,1.577956 -1.27919,2.857143 -2.85715,2.857143 -1.57795,0 -2.85714,-1.279187 -2.85714,-2.857143 0,-1.577957 1.27919,-2.857143 2.85714,-2.857143 1.57796,0 2.85715,1.279186 2.85715,2.857143 z"
         transform="matrix(2.4999999,0,0,2.4999999,-384.64284,-93.186123)" />
      <path
         transform="matrix(2.4999999,0,0,2.4999999,-386.07141,-59.614694)"
         d="m 335,57.362183 c 0,1.577956 -1.27919,2.857143 -2.85715,2.857143 -1.57795,0 -2.85714,-1.279187 -2.85714,-2.857143 0,-1.577957 1.27919,-2.857143 2.85714,-2.857143 1.57796,0 2.85715,1.279186 2.85715,2.857143 z"
         sodipodi:ry="2.8571429"
         sodipodi:rx="2.8571429"
         sodipodi:cy="57.362183"
         sodipodi:cx="332.14285"
         id="path3179"
         style="fill:#336699;fill-opacity:1;stroke:#000000;stroke-width:0.80000001;stroke-linecap:square;stroke-linejoin:round;stroke-miterlimit:4;stroke-opacity:1;stroke-dasharray:none;stroke-dashoffset:0"
         sodipodi:type="arc" />
      <path
         sodipodi:type="arc"
         style="fill:#336699;fill-opacity:1;stroke:#000000;stroke-width:0.80000001;stroke-linecap:square;stroke-linejoin:round;stroke-miterlimit:4;stroke-opacity:1;stroke-dasharray:none;stroke-dashoffset:0"
         id="path3181"
         sodipodi:cx="332.14285"
         sodipodi:cy="57.362183"
         sodipodi:rx="2.8571429"
         sodipodi:ry="2.8571429"
         d="m 335,57.362183 c 0,1.577956 -1.27919,2.857143 -2.85715,2.857143 -1.57795,0 -2.85714,-1.279187 -2.85714,-2.857143 0,-1.577957 1.27919,-2.857143 2.85714,-2.857143 1.57796,0 2.85715,1.279186 2.85715,2.857143 z"
         transform="matrix(2.4999999,0,0,2.4999999,-368.92855,-83.186123)" />
      <path
         transform="matrix(2.4999999,0,0,2.4999999,-406.07141,-51.043266)"
         d="m 335,57.362183 c 0,1.577956 -1.27919,2.857143 -2.85715,2.857143 -1.57795,0 -2.85714,-1.279187 -2.85714,-2.857143 0,-1.577957 1.27919,-2.857143 2.85714,-2.857143 1.57796,0 2.85715,1.279186 2.85715,2.857143 z"
         sodipodi:ry="2.8571429"
         sodipodi:rx="2.8571429"
         sodipodi:cy="57.362183"
         sodipodi:cx="332.14285"
         id="path3183"
         style="fill:#336699;fill-opacity:1;stroke:#000000;stroke-width:0.80000001;stroke-linecap:square;stroke-linejoin:round;stroke-miterlimit:4;stroke-opacity:1;stroke-dasharray:none;stroke-dashoffset:0"
         sodipodi:type="arc" />
      <path
         inkscape:connector-curvature="0"
         id="path3197"
         d="M 430.53571,140.21932 536.60714,34.147896"
         style="fill:none;stroke:#336699;stroke-width:5;stroke-linecap:butt;stroke-linejoin:miter;stroke-miterlimit:4;stroke-opacity:1;stroke-dasharray:10, 5;stroke-dashoffset:0" />
      <rect
         y="106.11217"
         x="495.99997"
         height="13"
         width="13"
         id="rect3686"
         style="fill:#336699;fill-opacity:1;stroke:#000000;stroke-width:2;stroke-linecap:square;stroke-linejoin:miter;stroke-miterlimit:4;stroke-opacity:1;stroke-dasharray:none;stroke-dashoffset:0" />
      <rect
         style="fill:#336699;fill-opacity:1;stroke:#000000;stroke-width:2;stroke-linecap:square;stroke-linejoin:miter;stroke-miterlimit:4;stroke-opacity:1;stroke-dasharray:none;stroke-dashoffset:0"
         id="rect3688"
         width="13"
         height="13"
         x="523.5"
         y="69.112167" />
      <rect
         y="108.11217"
         x="523"
         height="13"
         width="13"
         id="rect3690"
         style="fill:#336699;fill-opacity:1;stroke:#000000;stroke-width:2;stroke-linecap:square;stroke-linejoin:miter;stroke-miterlimit:4;stroke-opacity:1;stroke-dasharray:none;stroke-dashoffset:0" />
      <rect
         style="fill:#336699;fill-opacity:1;stroke:#000000;stroke-width:2;stroke-linecap:square;stroke-linejoin:miter;stroke-miterlimit:4;stroke-opacity:1;stroke-dasharray:none;stroke-dashoffset:0"
         id="rect3692"
         width="13"
         height="13"
         x="458.5"
         y="134.61217" />
    </g>
  </g>
</svg>
