<?xml version="1.0" encoding="UTF-8" standalone="no"?>
<!-- Created with Inkscape (http://www.inkscape.org/) -->

<svg
   xmlns:dc="http://purl.org/dc/elements/1.1/"
   xmlns:cc="http://creativecommons.org/ns#"
   xmlns:rdf="http://www.w3.org/1999/02/22-rdf-syntax-ns#"
   xmlns:svg="http://www.w3.org/2000/svg"
   xmlns="http://www.w3.org/2000/svg"
   xmlns:sodipodi="http://sodipodi.sourceforge.net/DTD/sodipodi-0.dtd"
   xmlns:inkscape="http://www.inkscape.org/namespaces/inkscape"
   width="364.10745"
   height="217.01485"
   id="svg3893"
   version="1.1"
   inkscape:version="0.48.3.1 r9886"
   sodipodi:docname="svm_detailed.svg"
   inkscape:export-filename="svm_detailed.png"
   inkscape:export-xdpi="89.969437"
   inkscape:export-ydpi="89.969437">
  <defs
     id="defs3895" />
  <sodipodi:namedview
     id="base"
     pagecolor="#ffffff"
     bordercolor="#666666"
     borderopacity="1.0"
     inkscape:pageopacity="1"
     inkscape:pageshadow="2"
     inkscape:zoom="0.98632864"
     inkscape:cx="182.04907"
     inkscape:cy="108.5166"
     inkscape:document-units="px"
     inkscape:current-layer="layer1"
     showgrid="false"
     fit-margin-top="5"
     fit-margin-left="5"
     fit-margin-right="5"
     fit-margin-bottom="5"
     inkscape:window-width="1600"
     inkscape:window-height="846"
     inkscape:window-x="0"
     inkscape:window-y="25"
     inkscape:window-maximized="1" />
  <metadata
     id="metadata3898">
    <rdf:RDF>
      <cc:Work
         rdf:about="">
        <dc:format>image/svg+xml</dc:format>
        <dc:type
           rdf:resource="http://purl.org/dc/dcmitype/StillImage" />
        <dc:title></dc:title>
      </cc:Work>
    </rdf:RDF>
  </metadata>
  <g
     inkscape:label="Layer 1"
     inkscape:groupmode="layer"
     id="layer1"
     transform="translate(-192.94628,-423.85476)">
    <g
       id="g4775"
       inkscape:export-filename="/Users/matthew/ece/Private/15781_proj/poster/svm_example.png"
       inkscape:export-xdpi="600"
       inkscape:export-ydpi="600"
       transform="matrix(1.3082682,0,0,1.3082682,150.70912,-717.45985)">
      <path
         inkscape:connector-curvature="0"
         id="path4643"
         d="m 36.606632,930.1088 269.668848,0"
         style="fill:none;stroke:#000000;stroke-width:1;stroke-linecap:butt;stroke-linejoin:miter;stroke-miterlimit:4;stroke-opacity:1;stroke-dasharray:2.99999998, 2.99999998;stroke-dashoffset:0" />
      <path
         transform="translate(49.944146,22.827664)"
         d="m 214.84383,888.20663 4.4318,12.77725 13.52139,0.26651 -10.78238,8.16329 3.92487,12.94196 -11.09568,-7.73206 -11.09569,7.73206 3.92488,-12.94196 -10.78239,-8.16329 13.52139,-0.26651 z"
         inkscape:randomized="0"
         inkscape:rounded="0"
         inkscape:flatsided="false"
         sodipodi:arg2="-0.94247777"
         sodipodi:arg1="-1.5707963"
         sodipodi:r2="7.5398364"
         sodipodi:r1="18.877106"
         sodipodi:cy="907.08374"
         sodipodi:cx="214.84383"
         sodipodi:sides="5"
         id="path4647"
         style="fill:#fce94f;fill-opacity:1;stroke:#000000;stroke-width:1;stroke-linecap:round;stroke-linejoin:round;stroke-miterlimit:4;stroke-opacity:1;stroke-dasharray:none;stroke-dashoffset:0"
         sodipodi:type="star" />
      <path
         sodipodi:type="arc"
         style="fill:#ff0000;fill-opacity:1;stroke:#000000;stroke-width:0.80000001;stroke-linecap:square;stroke-linejoin:round;stroke-miterlimit:4;stroke-opacity:1;stroke-dasharray:none;stroke-dashoffset:0"
         id="path4591"
         sodipodi:cx="332.14285"
         sodipodi:cy="57.362183"
         sodipodi:rx="2.8571429"
         sodipodi:ry="2.8571429"
         d="m 335,57.362183 c 0,1.577956 -1.27919,2.857143 -2.85715,2.857143 -1.57795,0 -2.85714,-1.279187 -2.85714,-2.857143 0,-1.577957 1.27919,-2.857143 2.85714,-2.857143 1.57796,0 2.85715,1.279186 2.85715,2.857143 z"
         transform="matrix(2.4999999,0,0,2.4999999,-672.33847,740.94506)" />
      <path
         sodipodi:type="arc"
         style="fill:#336699;fill-opacity:1;stroke:#000000;stroke-width:0.80000001;stroke-linecap:square;stroke-linejoin:round;stroke-miterlimit:4;stroke-opacity:1;stroke-dasharray:none;stroke-dashoffset:0"
         id="path4593"
         sodipodi:cx="332.14285"
         sodipodi:cy="57.362183"
         sodipodi:rx="2.8571429"
         sodipodi:ry="2.8571429"
         d="m 335,57.362183 c 0,1.577956 -1.27919,2.857143 -2.85715,2.857143 -1.57795,0 -2.85714,-1.279187 -2.85714,-2.857143 0,-1.577957 1.27919,-2.857143 2.85714,-2.857143 1.57796,0 2.85715,1.279186 2.85715,2.857143 z"
         transform="matrix(2.4999999,0,0,2.4999999,-652.81494,872.52324)" />
      <path
         sodipodi:type="arc"
         style="fill:#336699;fill-opacity:1;stroke:#000000;stroke-width:0.80000001;stroke-linecap:square;stroke-linejoin:round;stroke-miterlimit:4;stroke-opacity:1;stroke-dasharray:none;stroke-dashoffset:0"
         id="path4599"
         sodipodi:cx="332.14285"
         sodipodi:cy="57.362183"
         sodipodi:rx="2.8571429"
         sodipodi:ry="2.8571429"
         d="m 335,57.362183 c 0,1.577956 -1.27919,2.857143 -2.85715,2.857143 -1.57795,0 -2.85714,-1.279187 -2.85714,-2.857143 0,-1.577957 1.27919,-2.857143 2.85714,-2.857143 1.57796,0 2.85715,1.279186 2.85715,2.857143 z"
         transform="matrix(2.4999999,0,0,2.4999999,-619.25886,867.03225)" />
      <path
         sodipodi:type="arc"
         style="fill:#336699;fill-opacity:1;stroke:#000000;stroke-width:0.80000001;stroke-linecap:square;stroke-linejoin:round;stroke-miterlimit:4;stroke-opacity:1;stroke-dasharray:none;stroke-dashoffset:0"
         id="path4601"
         sodipodi:cx="332.14285"
         sodipodi:cy="57.362183"
         sodipodi:rx="2.8571429"
         sodipodi:ry="2.8571429"
         d="m 335,57.362183 c 0,1.577956 -1.27919,2.857143 -2.85715,2.857143 -1.57795,0 -2.85714,-1.279187 -2.85714,-2.857143 0,-1.577957 1.27919,-2.857143 2.85714,-2.857143 1.57796,0 2.85715,1.279186 2.85715,2.857143 z"
         transform="matrix(2.4999999,0,0,2.4999999,-676.60924,858.49071)" />
      <path
         sodipodi:type="arc"
         style="fill:#336699;fill-opacity:1;stroke:#000000;stroke-width:0.80000001;stroke-linecap:square;stroke-linejoin:round;stroke-miterlimit:4;stroke-opacity:1;stroke-dasharray:none;stroke-dashoffset:0"
         id="path4603"
         sodipodi:cx="332.14285"
         sodipodi:cy="57.362183"
         sodipodi:rx="2.8571429"
         sodipodi:ry="2.8571429"
         d="m 335,57.362183 c 0,1.577956 -1.27919,2.857143 -2.85715,2.857143 -1.57795,0 -2.85714,-1.279187 -2.85714,-2.857143 0,-1.577957 1.27919,-2.857143 2.85714,-2.857143 1.57796,0 2.85715,1.279186 2.85715,2.857143 z"
         transform="matrix(2.4999999,0,0,2.4999999,-754.7034,861.54125)" />
      <path
         sodipodi:type="arc"
         style="fill:#336699;fill-opacity:1;stroke:#000000;stroke-width:0.80000001;stroke-linecap:square;stroke-linejoin:round;stroke-miterlimit:4;stroke-opacity:1;stroke-dasharray:none;stroke-dashoffset:0"
         id="path4607"
         sodipodi:cx="332.14285"
         sodipodi:cy="57.362183"
         sodipodi:rx="2.8571429"
         sodipodi:ry="2.8571429"
         d="m 335,57.362183 c 0,1.577956 -1.27919,2.857143 -2.85715,2.857143 -1.57795,0 -2.85714,-1.279187 -2.85714,-2.857143 0,-1.577957 1.27919,-2.857143 2.85714,-2.857143 1.57796,0 2.85715,1.279186 2.85715,2.857143 z"
         transform="matrix(2.4999999,0,0,2.4999999,-578.99156,851.77949)" />
      <path
         sodipodi:type="arc"
         style="fill:#336699;fill-opacity:1;stroke:#000000;stroke-width:0.80000001;stroke-linecap:square;stroke-linejoin:round;stroke-miterlimit:4;stroke-opacity:1;stroke-dasharray:none;stroke-dashoffset:0"
         id="path4609"
         sodipodi:cx="332.14285"
         sodipodi:cy="57.362183"
         sodipodi:rx="2.8571429"
         sodipodi:ry="2.8571429"
         d="m 335,57.362183 c 0,1.577956 -1.27919,2.857143 -2.85715,2.857143 -1.57795,0 -2.85714,-1.279187 -2.85714,-2.857143 0,-1.577957 1.27919,-2.857143 2.85714,-2.857143 1.57796,0 2.85715,1.279186 2.85715,2.857143 z"
         transform="matrix(2.4999999,0,0,2.4999999,-544.21526,854.83004)" />
      <path
         sodipodi:type="arc"
         style="fill:#336699;fill-opacity:1;stroke:#000000;stroke-width:0.80000001;stroke-linecap:square;stroke-linejoin:round;stroke-miterlimit:4;stroke-opacity:1;stroke-dasharray:none;stroke-dashoffset:0"
         id="path4611"
         sodipodi:cx="332.14285"
         sodipodi:cy="57.362183"
         sodipodi:rx="2.8571429"
         sodipodi:ry="2.8571429"
         d="m 335,57.362183 c 0,1.577956 -1.27919,2.857143 -2.85715,2.857143 -1.57795,0 -2.85714,-1.279187 -2.85714,-2.857143 0,-1.577957 1.27919,-2.857143 2.85714,-2.857143 1.57796,0 2.85715,1.279186 2.85715,2.857143 z"
         transform="matrix(2.4999999,0,0,2.4999999,-618.64875,882.89513)" />
      <path
         sodipodi:type="arc"
         style="fill:#336699;fill-opacity:1;stroke:#000000;stroke-width:0.80000001;stroke-linecap:square;stroke-linejoin:round;stroke-miterlimit:4;stroke-opacity:1;stroke-dasharray:none;stroke-dashoffset:0"
         id="path4613"
         sodipodi:cx="332.14285"
         sodipodi:cy="57.362183"
         sodipodi:rx="2.8571429"
         sodipodi:ry="2.8571429"
         d="m 335,57.362183 c 0,1.577956 -1.27919,2.857143 -2.85715,2.857143 -1.57795,0 -2.85714,-1.279187 -2.85714,-2.857143 0,-1.577957 1.27919,-2.857143 2.85714,-2.857143 1.57796,0 2.85715,1.279186 2.85715,2.857143 z"
         transform="matrix(2.4999999,0,0,2.4999999,-713.82599,870.69291)" />
      <path
         sodipodi:type="arc"
         style="fill:#ff0000;fill-opacity:1;stroke:#000000;stroke-width:0.80000001;stroke-linecap:square;stroke-linejoin:round;stroke-miterlimit:4;stroke-opacity:1;stroke-dasharray:none;stroke-dashoffset:0"
         id="path4615"
         sodipodi:cx="332.14285"
         sodipodi:cy="57.362183"
         sodipodi:rx="2.8571429"
         sodipodi:ry="2.8571429"
         d="m 335,57.362183 c 0,1.577956 -1.27919,2.857143 -2.85715,2.857143 -1.57795,0 -2.85714,-1.279187 -2.85714,-2.857143 0,-1.577957 1.27919,-2.857143 2.85714,-2.857143 1.57796,0 2.85715,1.279186 2.85715,2.857143 z"
         transform="matrix(2.4999999,0,0,2.4999999,-565.56913,786.70335)" />
      <path
         sodipodi:type="arc"
         style="fill:#ff0000;fill-opacity:1;stroke:#000000;stroke-width:0.80000001;stroke-linecap:square;stroke-linejoin:round;stroke-miterlimit:4;stroke-opacity:1;stroke-dasharray:none;stroke-dashoffset:0"
         id="path4619"
         sodipodi:cx="332.14285"
         sodipodi:cy="57.362183"
         sodipodi:rx="2.8571429"
         sodipodi:ry="2.8571429"
         d="m 335,57.362183 c 0,1.577956 -1.27919,2.857143 -2.85715,2.857143 -1.57795,0 -2.85714,-1.279187 -2.85714,-2.857143 0,-1.577957 1.27919,-2.857143 2.85714,-2.857143 1.57796,0 2.85715,1.279186 2.85715,2.857143 z"
         transform="matrix(2.4999999,0,0,2.4999999,-636.95206,759.24837)" />
      <path
         sodipodi:type="arc"
         style="fill:#ff0000;fill-opacity:1;stroke:#000000;stroke-width:0.80000001;stroke-linecap:square;stroke-linejoin:round;stroke-miterlimit:4;stroke-opacity:1;stroke-dasharray:none;stroke-dashoffset:0"
         id="path4621"
         sodipodi:cx="332.14285"
         sodipodi:cy="57.362183"
         sodipodi:rx="2.8571429"
         sodipodi:ry="2.8571429"
         d="m 335,57.362183 c 0,1.577956 -1.27919,2.857143 -2.85715,2.857143 -1.57795,0 -2.85714,-1.279187 -2.85714,-2.857143 0,-1.577957 1.27919,-2.857143 2.85714,-2.857143 1.57796,0 2.85715,1.279186 2.85715,2.857143 z"
         transform="matrix(2.4999999,0,0,2.4999999,-726.0282,740.94506)" />
      <path
         sodipodi:type="arc"
         style="fill:#ff0000;fill-opacity:1;stroke:#000000;stroke-width:0.80000001;stroke-linecap:square;stroke-linejoin:round;stroke-miterlimit:4;stroke-opacity:1;stroke-dasharray:none;stroke-dashoffset:0"
         id="path4623"
         sodipodi:cx="332.14285"
         sodipodi:cy="57.362183"
         sodipodi:rx="2.8571429"
         sodipodi:ry="2.8571429"
         d="m 335,57.362183 c 0,1.577956 -1.27919,2.857143 -2.85715,2.857143 -1.57795,0 -2.85714,-1.279187 -2.85714,-2.857143 0,-1.577957 1.27919,-2.857143 2.85714,-2.857143 1.57796,0 2.85715,1.279186 2.85715,2.857143 z"
         transform="matrix(2.4999999,0,0,2.4999999,-769.95616,765.34948)" />
      <path
         sodipodi:type="arc"
         style="fill:#ff0000;fill-opacity:1;stroke:#000000;stroke-width:0.80000001;stroke-linecap:square;stroke-linejoin:round;stroke-miterlimit:4;stroke-opacity:1;stroke-dasharray:none;stroke-dashoffset:0"
         id="path4625"
         sodipodi:cx="332.14285"
         sodipodi:cy="57.362183"
         sodipodi:rx="2.8571429"
         sodipodi:ry="2.8571429"
         d="m 335,57.362183 c 0,1.577956 -1.27919,2.857143 -2.85715,2.857143 -1.57795,0 -2.85714,-1.279187 -2.85714,-2.857143 0,-1.577957 1.27919,-2.857143 2.85714,-2.857143 1.57796,0 2.85715,1.279186 2.85715,2.857143 z"
         transform="matrix(2.4999999,0,0,2.4999999,-613.76786,745.82595)" />
      <path
         sodipodi:type="arc"
         style="fill:#ff0000;fill-opacity:1;stroke:#000000;stroke-width:0.80000001;stroke-linecap:square;stroke-linejoin:round;stroke-miterlimit:4;stroke-opacity:1;stroke-dasharray:none;stroke-dashoffset:0"
         id="path4627"
         sodipodi:cx="332.14285"
         sodipodi:cy="57.362183"
         sodipodi:rx="2.8571429"
         sodipodi:ry="2.8571429"
         d="m 335,57.362183 c 0,1.577956 -1.27919,2.857143 -2.85715,2.857143 -1.57795,0 -2.85714,-1.279187 -2.85714,-2.857143 0,-1.577957 1.27919,-2.857143 2.85714,-2.857143 1.57796,0 2.85715,1.279186 2.85715,2.857143 z"
         transform="matrix(2.4999999,0,0,2.4999999,-584.48256,765.95959)" />
      <path
         sodipodi:type="arc"
         style="fill:#ff0000;fill-opacity:1;stroke:#000000;stroke-width:0.80000001;stroke-linecap:square;stroke-linejoin:round;stroke-miterlimit:4;stroke-opacity:1;stroke-dasharray:none;stroke-dashoffset:0"
         id="path4629"
         sodipodi:cx="332.14285"
         sodipodi:cy="57.362183"
         sodipodi:rx="2.8571429"
         sodipodi:ry="2.8571429"
         d="m 335,57.362183 c 0,1.577956 -1.27919,2.857143 -2.85715,2.857143 -1.57795,0 -2.85714,-1.279187 -2.85714,-2.857143 0,-1.577957 1.27919,-2.857143 2.85714,-2.857143 1.57796,0 2.85715,1.279186 2.85715,2.857143 z"
         transform="matrix(2.4999999,0,0,2.4999999,-707.72488,758.02816)" />
      <path
         sodipodi:type="arc"
         style="fill:#ff0000;fill-opacity:1;stroke:#000000;stroke-width:0.80000001;stroke-linecap:square;stroke-linejoin:round;stroke-miterlimit:4;stroke-opacity:1;stroke-dasharray:none;stroke-dashoffset:0"
         id="path4631"
         sodipodi:cx="332.14285"
         sodipodi:cy="57.362183"
         sodipodi:rx="2.8571429"
         sodipodi:ry="2.8571429"
         d="m 335,57.362183 c 0,1.577956 -1.27919,2.857143 -2.85715,2.857143 -1.57795,0 -2.85714,-1.279187 -2.85714,-2.857143 0,-1.577957 1.27919,-2.857143 2.85714,-2.857143 1.57796,0 2.85715,1.279186 2.85715,2.857143 z"
         transform="matrix(2.4999999,0,0,2.4999999,-674.77892,775.72136)" />
      <path
         sodipodi:type="arc"
         style="fill:#ff0000;fill-opacity:1;stroke:#000000;stroke-width:0.80000001;stroke-linecap:square;stroke-linejoin:round;stroke-miterlimit:4;stroke-opacity:1;stroke-dasharray:none;stroke-dashoffset:0"
         id="path4633"
         sodipodi:cx="332.14285"
         sodipodi:cy="57.362183"
         sodipodi:rx="2.8571429"
         sodipodi:ry="2.8571429"
         d="m 335,57.362183 c 0,1.577956 -1.27919,2.857143 -2.85715,2.857143 -1.57795,0 -2.85714,-1.279187 -2.85714,-2.857143 0,-1.577957 1.27919,-2.857143 2.85714,-2.857143 1.57796,0 2.85715,1.279186 2.85715,2.857143 z"
         transform="matrix(2.4999999,0,0,2.4999999,-550.31636,757.41805)" />
      <path
         sodipodi:type="arc"
         style="fill:#ff0000;fill-opacity:1;stroke:#000000;stroke-width:0.80000001;stroke-linecap:square;stroke-linejoin:round;stroke-miterlimit:4;stroke-opacity:1;stroke-dasharray:none;stroke-dashoffset:0"
         id="path4635"
         sodipodi:cx="332.14285"
         sodipodi:cy="57.362183"
         sodipodi:rx="2.8571429"
         sodipodi:ry="2.8571429"
         d="m 335,57.362183 c 0,1.577956 -1.27919,2.857143 -2.85715,2.857143 -1.57795,0 -2.85714,-1.279187 -2.85714,-2.857143 0,-1.577957 1.27919,-2.857143 2.85714,-2.857143 1.57796,0 2.85715,1.279186 2.85715,2.857143 z"
         transform="matrix(2.4999999,0,0,2.4999999,-616.2083,778.77191)" />
      <path
         inkscape:connector-curvature="0"
         id="path4637"
         d="m 36.606632,984.81306 269.668848,0"
         style="fill:none;stroke:#000000;stroke-width:1;stroke-linecap:butt;stroke-linejoin:miter;stroke-miterlimit:4;stroke-opacity:1;stroke-dasharray:2.99999998, 2.99999998;stroke-dashoffset:0" />
      <path
         inkscape:connector-curvature="0"
         style="fill:none;stroke:#000000;stroke-width:1px;stroke-linecap:butt;stroke-linejoin:miter;stroke-opacity:1"
         d="m 36.606632,957.31858 269.668848,0"
         id="path4641" />
      <path
         sodipodi:type="star"
         style="fill:#fce94f;fill-opacity:1;stroke:#000000;stroke-width:1;stroke-linecap:round;stroke-linejoin:round;stroke-miterlimit:4;stroke-opacity:1;stroke-dasharray:none;stroke-dashoffset:0"
         id="path4649"
         sodipodi:sides="5"
         sodipodi:cx="214.84383"
         sodipodi:cy="907.08374"
         sodipodi:r1="18.877106"
         sodipodi:r2="7.5398364"
         sodipodi:arg1="-1.5707963"
         sodipodi:arg2="-0.94247777"
         inkscape:flatsided="false"
         inkscape:rounded="0"
         inkscape:randomized="0"
         d="m 214.84383,888.20663 4.4318,12.77725 13.52139,0.26651 -10.78238,8.16329 3.92487,12.94196 -11.09568,-7.73206 -11.09569,7.73206 3.92488,-12.94196 -10.78239,-8.16329 13.52139,-0.26651 z"
         transform="translate(-110.05586,22.827664)" />
      <path
         transform="matrix(2.4999999,0,0,2.4999999,-725.56913,786.70335)"
         d="m 335,57.362183 c 0,1.577956 -1.27919,2.857143 -2.85715,2.857143 -1.57795,0 -2.85714,-1.279187 -2.85714,-2.857143 0,-1.577957 1.27919,-2.857143 2.85714,-2.857143 1.57796,0 2.85715,1.279186 2.85715,2.857143 z"
         sodipodi:ry="2.8571429"
         sodipodi:rx="2.8571429"
         sodipodi:cy="57.362183"
         sodipodi:cx="332.14285"
         id="path4645"
         style="fill:#ff0000;fill-opacity:1;stroke:#000000;stroke-width:0.80000001;stroke-linecap:square;stroke-linejoin:round;stroke-miterlimit:4;stroke-opacity:1;stroke-dasharray:none;stroke-dashoffset:0"
         sodipodi:type="arc" />
      <path
         transform="translate(-95.872276,77.312098)"
         d="m 214.84383,888.20663 4.4318,12.77725 13.52139,0.26651 -10.78238,8.16329 3.92487,12.94196 -11.09568,-7.73206 -11.09569,7.73206 3.92488,-12.94196 -10.78239,-8.16329 13.52139,-0.26651 z"
         inkscape:randomized="0"
         inkscape:rounded="0"
         inkscape:flatsided="false"
         sodipodi:arg2="-0.94247777"
         sodipodi:arg1="-1.5707963"
         sodipodi:r2="7.5398364"
         sodipodi:r1="18.877106"
         sodipodi:cy="907.08374"
         sodipodi:cx="214.84383"
         sodipodi:sides="5"
         id="path4651"
         style="fill:#fce94f;fill-opacity:1;stroke:#000000;stroke-width:1;stroke-linecap:round;stroke-linejoin:round;stroke-miterlimit:4;stroke-opacity:1;stroke-dasharray:none;stroke-dashoffset:0"
         sodipodi:type="star" />
      <path
         sodipodi:type="arc"
         style="fill:#336699;fill-opacity:1;stroke:#000000;stroke-width:0.80000001;stroke-linecap:square;stroke-linejoin:round;stroke-miterlimit:4;stroke-opacity:1;stroke-dasharray:none;stroke-dashoffset:0"
         id="path4595"
         sodipodi:cx="332.14285"
         sodipodi:cy="57.362183"
         sodipodi:rx="2.8571429"
         sodipodi:ry="2.8571429"
         d="m 335,57.362183 c 0,1.577956 -1.27919,2.857143 -2.85715,2.857143 -1.57795,0 -2.85714,-1.279187 -2.85714,-2.857143 0,-1.577957 1.27919,-2.857143 2.85714,-2.857143 1.57796,0 2.85715,1.279186 2.85715,2.857143 z"
         transform="matrix(2.4999999,0,0,2.4999999,-711.38555,841.40761)" />
      <path
         sodipodi:type="star"
         style="fill:#fce94f;fill-opacity:1;stroke:#000000;stroke-width:1;stroke-linecap:round;stroke-linejoin:round;stroke-miterlimit:4;stroke-opacity:1;stroke-dasharray:none;stroke-dashoffset:0"
         id="path4653"
         sodipodi:sides="5"
         sodipodi:cx="214.84383"
         sodipodi:cy="907.08374"
         sodipodi:r1="18.877106"
         sodipodi:r2="7.5398364"
         sodipodi:arg1="-1.5707963"
         sodipodi:arg2="-0.94247777"
         inkscape:flatsided="false"
         inkscape:rounded="0"
         inkscape:randomized="0"
         d="m 214.84383,888.20663 4.4318,12.77725 13.52139,0.26651 -10.78238,8.16329 3.92487,12.94196 -11.09568,-7.73206 -11.09569,7.73206 3.92488,-12.94196 -10.78239,-8.16329 13.52139,-0.26651 z"
         transform="translate(4.127724,77.312098)" />
      <path
         transform="matrix(2.4999999,0,0,2.4999999,-611.38555,841.40761)"
         d="m 335,57.362183 c 0,1.577956 -1.27919,2.857143 -2.85715,2.857143 -1.57795,0 -2.85714,-1.279187 -2.85714,-2.857143 0,-1.577957 1.27919,-2.857143 2.85714,-2.857143 1.57796,0 2.85715,1.279186 2.85715,2.857143 z"
         sodipodi:ry="2.8571429"
         sodipodi:rx="2.8571429"
         sodipodi:cy="57.362183"
         sodipodi:cx="332.14285"
         id="path4639"
         style="fill:#336699;fill-opacity:1;stroke:#000000;stroke-width:0.80000001;stroke-linecap:square;stroke-linejoin:round;stroke-miterlimit:4;stroke-opacity:1;stroke-dasharray:none;stroke-dashoffset:0"
         sodipodi:type="arc" />
    </g>
  </g>
</svg>
